<?xml version="1.0" encoding="UTF-8"?>
<svg id="svg1" xmlns="http://www.w3.org/2000/svg" viewBox="0 0 1080 1080">
  <defs>
    <style>
      .cls-1, .cls-2 {
        stroke-linecap: round;
      }

      .cls-1, .cls-2, .cls-3, .cls-4, .cls-5, .cls-6, .cls-7 {
        stroke: #000;
      }

      .cls-1, .cls-2, .cls-3, .cls-4, .cls-7 {
        fill: none;
      }

      .cls-1, .cls-4 {
        stroke-width: 6.82px;
      }

      .cls-8 {
        fill: #fff;
      }

      .cls-9 {
        fill: #a5a5a5;
      }

      .cls-10 {
        opacity: .4;
      }

      .cls-10, .cls-11 {
        fill: #333;
      }

      .cls-10, .cls-12 {
        isolation: isolate;
      }

      .cls-13 {
        fill: #777;
      }

      .cls-14, .cls-12 {
        fill: #a6a6a6;
      }

      .cls-2, .cls-6, .cls-7 {
        stroke-width: 7.62px;
      }

      .cls-3 {
        stroke-width: 10.12px;
      }

      .cls-3, .cls-4, .cls-5, .cls-6, .cls-7 {
        stroke-linecap: square;
      }

      .cls-5 {
        stroke-width: .2px;
      }

      .cls-12 {
        opacity: .3;
      }

      .cls-15 {
        fill-rule: evenodd;
      }
    </style>
  </defs>
  <g id="g1">
    <g id="g65">
      <path id="path62" class="cls-9" d="m201.4,179.62l-23.38,25.26-10.37,18.29-19.6,58.79,17.42,71.85,33.75,71.85-11.97-14.15-29.39,50.08s-13.16,38.64-21.67,75.08c-7.04,30.14-9.51,59.03-10.99,61-3.27,4.35-18.51,83.82-18.51,83.82l-9.8,42.46v30.48l7.62,10.89,13.06,7.62,16.33-1.09-13.06,27.22,60.96,57.7,52.25,38.1,74.03,39.19,68.58,18.51,128.46,25.04,89.96,3.65,112.53-9.1,100.15-32.66,56.61-38.1,21.77-23.95,56.61-32.66,10.89-22.45-13.06-22.18,29.39-16.33,11.97-14.15-6.53-28.3,13.45-26.81,7.54-18.45,19.3-8.08,19.6-55.52-7.62-89.27-7.62-31.57-20.21-49.12,27.35-5.44,2.65-19.46v-43.55l-5.44-47.9v-42.46l-16.33-18.51s-7.61-13.51-18.92-24.06c-12.01-11.2-27.83-19.48-30.07-19.48-1.62,0-9.78-7.27-21.57-11.8-19.93-7.67-47.01-14.32-47.01-14.32l-54.43-14.15-30.48-13.06-43.55-22.86-107.77-13.06-64.23,2.18-76.2-1.09-48.99,17.42-18.51,1.09-38.1-20.68-109.95,19.6-33.87-3.42-44.16,3.97-18.86,8.16Z"/>
      <path id="path79" class="cls-13" d="m524.74,554.38c-18.8-4.03-28.35-25.78-10.46-21.73,20.4,4.62,33.03,5.43,51.89,10.43,18.86,5,56.58,17.7,56.58,17.7l30.02,2.31s-43.49,1.54-61.2,1.15c-17.7-.38-66.83-9.87-66.83-9.87h0Z"/>
      <path id="path78" class="cls-13" d="m563.64,650.19c0-4.08-2.18-5.99-6.26-4.63s-19.05,1.63-30.75,22.59c-11.7,20.96-20.14,55.25-21.23,62.05-1.09,6.8-1.91,45.72-.27,54.7s2.45,17.69,10.07,17.42c7.62-.27,8.71-21.77,9.8-29.12s-.27-45.72,2.99-54.43c3.27-8.71,12.52-35.38,16.87-41.64,4.35-6.26,18.78-26.94,18.78-26.94h0Z"/>
      <path id="path77" class="cls-13" d="m880.47,345.09c1.55,13.99,15.34,11.47,27.22,28.57,10.62,15.29,20.98,32.41,47.77,62,16.65,18.39,24.8,54.23,35.81,91.53,8.68,29.41,22.63,58.86,19.88,87.4-.72,7.49-6.17,23.37-13.79,30.97-6.96,6.93-16.11,5.62-17.41,11.82-1.71,8.2-4.58,15.69-1.68,20.69,4.38,7.54,15.51,11.34,12.73,18.92-3.26,8.9-3.34,22.21-8.37,30.89-5.91,10.2-16.6,15.18-16.96,16.41-5.44,18.51-44.66,20.24-51.74,23.23s-37.59,3.76-40.58,7.03c-52.8,46.97-121.5,45.39-188.06,47.9,0,0-50.08-6.8-30.75-4.9,103.56,10.21,158.97,23.98,167.65,32.66,17.46,17.46-23.82,49.53-22.86,49.53,18.23,0,81.92-17.96,81.92-17.96,0,0,45.18-26.13,54.98-32.66s17.96-17.15,17.96-17.15c0,0-6.26-14.42-6.8-18.78s-1.36-14.15-1.36-14.15l26.4-18.23,10.07-25.04-6.53-16.06,16.03-32.92c8.95-10.73,25.4-13.77,27.81-32.51,1.95-15.18,12.54-30.91,13.85-46.08,1.78-20.68-1.19-68.41-2.48-76.33l-29.87-85.12-29.41-10.62,18.78,4.63s14.59,5.98,16.6.82c2.42-6.21-11.85,1.35-18.94-3.7-12.52-8.91-22.82-28.9-23.52-31.68-1.09-4.35-19.6-61.24-33.75-68.86-14.15-7.62-48.99-33.2-50.08-34.56s-18.27-13.04-18.27-13.04"/>
      <path id="path76" class="cls-13" d="m273.79,796.88s-13.63,13.99-22.32,17.96c-7.38,3.37-21.77-3.81-23.95,4.35s1.09,38.65,5.99,44.09c4.9,5.44,96.34,41.91,99.07,43s132.81,33.2,132.81,33.2l91.99,11.97,105.6-1.63s42.46-9.8,24.49-13.61c-17.96-3.81-87.95-19.63-91.76-23.44s-44.32-47.32-44.32-49.49,5.17-6.26,5.17-6.26l3.81,8.16,33.48,24.22,31.03,18.51,19.05,4.35,31.57,5.44,32.11-.54,44.09-8.71,39.19-8.16s71.31-15.79,73.48-15.79h17.96l-22.86,21.23-37.56,29.39-52.8,20.68-141.52,27.76-97.98-1.63-87.63-11.43-128.46-35.92-67.5-33.2-74.03-50.62-49.53-53.34,10.89-22.86,25.04-22.32,2.18-55.52,19.05-93.08,17.26-83s.55-1.45,1.91.56c5.11,7.56,2.08,24.38,1.95,35.91-.38,34.54-15.66,81.01-24.14,123.84-7.06,35.63-10.21,68.45,11.19,92.51,4.28,4.81,13.34,6.25,19.05,3.27,11.73-6.12,16.87-35.92,16.87-35.92l1.09-103.42,5.44-49.53,10.34-40.28s-8.71,99.07-8.71,105.05-3.33,62.98,4.35,93.08c1.95,7.63,4.73,15.71,10.34,21.23,4.28,4.21,10.33,7.82,16.33,7.62,4.14-.14,8.02-3,10.89-5.99,6.19-6.43,10.89-11.97,11.97-23.95,1.09-11.97-.54-82.19-.54-82.19,0,0-3.81-40.82-3.27-44.63s5.99-65.86,6.53-57.7c26.69,61.36-7.3,150.76,19.6,210.65,4.9,7.08,9.25,11.97,12.52,11.97s21.4,3.25,28.3-3.27c9.24-8.72,7.08-30.48,6.53-37.56s-10.89-63.68-11.97-69.67c-1.09-5.99-13.06-48.99-13.06-48.99l10.42-44.56s7.7-18.47,9.43-23.09c1.73-4.62,15.97-45.61,15.97-45.61,0,0,5-14.82,5.77-20.01s3.85-33.49,4.04-35.41-3.66-14.43-3.66-17.51,3.46-15.97,3.66-16.94c.19-.96,18.09-35.02,18.09-35.02l10.58-33.68,7.7-31.18,6.74-20.59,19.44-14.82,18.44-28.46,25.63-34.09s20.01-18.86,17.32-14.05c-32.24,41.8-52.04,73.14-38.49,126.05,15.15,7.44,25.83-7.39,34.06-18.09,0,0,17.7-56.77,22.9-61.97,5.2-5.2,10.58-17.51,12.51-15.97,1.92,1.54,6.16,10.39,2.69,24.63-3.46,14.24-13.86,40.03-11.35,48.5s20.59,14.24,24.83,8.85,17.9-34.45,18.47-37.53c.58-3.08,9.81-35.6,9.81-35.6l3.19-5.84s7.01,32.78,13.36,39.33c6.35,6.54,15.2,15.97,17.9,22.13,2.66,4.45,11.2,33.06,18.67,20.98,1.54-5.39,5.2-20.4,3.85-28.48-1.35-8.08-.38-27.33-.58-28.48s-7.6-15.32-6.93-18.67c.94-4.7-5.22-7.71-2.84-6.97,12.57,3.93,51.12,72.66,78.86,70.67,0,0,5.39-17.13,4.04-20.59s-5.63-14.83-5.39-17.7c2.46-29.24-3.72-23.88-1.74-21.64,4.13,4.67,17.33,42,33.11,46.47,5.6,1.59,20.21-4.62,20.78-8.66.58-4.04-5.2-34.64-5.58-35.6-.38-.96-11.16-18.86-11.16-18.86,0,0-4.78-18.53-4.18-17.11,2.73,6.44,8.23,11.56,14.57,18.6,6.25,6.93,13.33,15.78,17.27,23.25,5.54,10.5,7.43,22.45,11.79,36.08,0,0,14.82,11.16,22.71,4.62s10.2-19.24,10.2-20.78-.19-21.75-.96-24.25c-.77-2.5-6.35-20.21-7.51-23.67s-11.76-25.19-10.8-25.13c9.1.58,20.03,37.31,28.41,43.94,77.53,61.29,16.88,14.84,15.11,30.46-.21,1.89,8.08-11.55,8.85-19.63s-.38-21.75,3.85-17.9c4.23,3.85,13.28,12.7,13.28,13.66s2.12,29.83,1.73,32.72c-.38,2.89,2.66,25.2,2.66,25.2l-19.4-17.5s-3.85,4.23-6.93,4.81c-3.08.58-8.28,4.62-11.55,11.16s-8.08,17.13-13.47,20.21c-3.77,2.16-27.47,14.17-61.2-2.69-7.4,7.17-16.06,8.68-37.91.58,0,0-6.74,19.82-10.78,21.55-4.04,1.73-10.39,9.24-17.7,7.31-7.31-1.92-22.71-8.47-22.71-8.47,0,0-10.14,1.56-11.49,2.72s-14.69,2.09-15.84,2.48-19.63,5.97-28.48,6.74c-32.32,2.81-39.11-25.11-39.45-24.83-4.62,3.85-23.48,25.6-28.48,27.52-22.67,6.66-21.43-2.02-35.22-15.4,0,0-17.7,25.4-20.01,26.75-17.14,10-25.33,5.75-55.42-20.78,0,0-7.31,33.1-11.74,38.49s-14.24,13.66-18.47,18.67.96,46.19.96,46.19c0,0-8.47,21.55-8.47,23.09s.38,35.79-1.35,40.22-11.93,20.98-12.32,21.94-13.86,46.57-13.66,51.58-3.66,43.68-3.66,43.68c0,0,13.28,56.96,13.28,59.66s0,34.26,1.15,43.68c1.15,9.43,2.5,33.87,1.73,38.49s-9.43,33.49-14.82,34.45c-5.39.96-26.36,4.81-35.22,2.12s-19.05-8.85-19.05-8.85l-30.46-13.89Z"/>
      <path id="path75" class="cls-10" d="m155.54,735.27s-16.55,16.24-23.05,22.45c-8.61,8.22-14.28-12.67-14.65-21.26-5.67-42.1,10.41-83.72,18.03-125.83l30.6-110.85,24.63-53.11,15.59,35.41s12.25,22.08,21.94,29.64c5.31,4.14,12,6.75,18.67,7.7,10.03,1.43,21.26,1.47,30.21-3.27,17.17-9.1,37.72-44.45,37.72-44.45l64.08-78.13,29.44-46.38,7.89-41.18,11.74-12.12,16.17-14.05,5.97-13.86,17.51-25.98s-22.61-7.57-32.14-14.43c-10.61-7.65-26.56-28.87-26.56-28.87l1.92,8.08-1.92,43.11v39.07s-10.2,26.94-12.7,31.37c-2.5,4.43-16.94,29.25-16.94,29.25l-56.19,78.33-38.68,45.22-15.59,29.44s-7.72,3.21-11.74,2.89c-6.39-.51-17.7-7.51-17.7-7.51l-26.56-48.88-26.75-35.6-10.01,17.9-35.99,88.52-11.16,40.22-12.32,71.01-17.13,77.56s-.77,24.63-1.15,25.79c-.38,1.15,1.73,22.13,1.73,22.13l6.16,14.63,15.97,5.39s9.43,1.35,12.89.38,13.47-14.05,13.47-14.05l6.59-25.65Z"/>
      <path id="path74" class="cls-11" d="m916.63,654.54l-14.15-.27-21.23.27-17.42-8.71s-8.44-17.69-8.44-19.87,5.72-17.69,5.72-17.69l14.7-.54,13.34,1.36,10.89,11.97,17.15,35.38-.54-1.91Z"/>
      <path id="path40-6" class="cls-2" d="m925.09,667.34c-16.26-23.88-20.84-67.77-60.04-58.5-12.24,2.89-7.58,28.31.77,37.72,11.13,12.55,49.84,7.02,49.84,7.02"/>
      <path id="path26" class="cls-5" d="m407.26,189.63c-1.13,4.18-.12,14.28-.19,18.58-.09,5.09-.2,13.52-.33,22.92-.26,18.77-.62,41.56-1.05,48.76v.08s-.01.11-.01.11c-.92,25.57-24.42,62.51-54.09,100.9-29.67,38.4-65.02,78.66-88.29,114.25-.4.62-3.01,2.21-6.09,2.72-2.89.48-6.41.06-7.02-.08-6.78-3.77-13.67-14.41-19.44-26.6-5.87-12.41-10.8-25.98-16.55-35.26l-.03-.05v-.02s-19.91-28.76-19.91-28.76l-4.26-5.44-2.19.61-1.59,8.71,19.22,30.39c4.69,7.58,9.85,21.26,15.98,34.22,6.13,12.95,13.15,25.73,24.31,31.58l.03.02.29.14.29.11h.02c3.59,1.32,7.96,1.37,12.56.6,4.61-.77,9.92-2.51,13.02-7.25,22.6-34.56,57.86-74.82,87.82-113.59,29.94-38.75,55.11-75.69,56.24-106.82l-1.22-71.06c-1.26-5.75-3.28-15.64-7.51-19.77h0Z"/>
      <path id="path28" d="m788.03,205.35c.29,1.42,1.37,6.56,2.48,9.82,1.18,3.44,1.95,8.25,3.59,13.21,3.29,9.91,7.01,21.98,9.08,32.49,3.47,17.71,3.07,34.46-7.22,47.1-2.21,2.11-7.21,5.11-12.64,6.62-5.5,1.53-11.35,1.62-15.85-.9-1.36-.76-3.65-3.1-5.72-6.02-2.07-2.93-4.1-6.46-5.77-9.68l-.08-.15c.86-7.16.1-14.94-1.53-22.89l.03.25c-.14-2.51-1.48-6.49-3.4-11.79s-4.44-11.69-7.01-17.96c-5.15-12.55-9.34-20.25-10.51-22.6l-3.53-7.38c.01.66.12,4.93,2.33,10.54,1.41,3.56,2.65,8.66,4.72,14.14,4.13,10.96,8.84,24.6,11.19,36.09,1.97,9.6,2.47,18.63.55,25.75-.97,3.6-2.4,7.11-4.55,9.88-2.15,2.76-4.96,4.81-9.01,5.67-3.83.81-6.82.15-9.49-1.27s-4.99-3.66-7.07-6c-4.09-4.6-7.26-11.23-11.06-18.06l-.88-1.57-7.72-39.61-2.15-12.31c-.19,5.03-.17,17.36,1.02,26.24,1.19,8.88,2.53,18.94,2.93,28.5.35,8.21-.54,15.79-3.4,21.88-2.85,6.06-7.52,10.78-15.61,13.82-7.35,1.93-17.12.66-22.81-6.08-4.81-5.7-9.55-17.38-20.69-34.24h0l-.42-.64c-3.6-29.55-8.19-38.3-12.12-44.24l-5.97-6.23c7.12,15.37,11.29,36.86,12.19,53.97.62,19.61-2.93,39.74-13.52,52.08-4.44,2.7-11.82,3.13-16.16.73-2.65-1.46-4.51-4.14-6.08-7.66-1.57-3.52-2.74-7.75-4.24-11.7-3.05-8.02-1.6-18.87-6.36-28.75-1.66-3.44-4.71-7.09-7.38-10.09-2.46-2.77-4.27-4.53-4.61-4.87.26-1.35-.35-4.34-.1-5.68,8.21-41.79,5.64-59.04-6.11,1.38-3.27,18.06-7.49,38.17-13.2,48.42-2.79,5.02-5.12,9.97-7.86,13.07-2.78,3.15-5.35,4.67-10.77,3.86-6.58-.98-13.94-6.91-16.17-12.03l-.02-.04h0s0-.02,0-.02c-6.47-14.36-10.03-25.44-10.5-41.41l1.34-5.47c6.21-17.78,10.87-22.96,15.05-39.78l1.67-11.16c-8.6,20.08-18.94,36.03-24.52,52.82-7.96,23.96-12.43,47.98-25.62,67.46-1.89,2.79-5.5,4.11-10.24,4.32-4.73.2-10.23-.8-14.56-2.04-2.6-.75-5.74-3.04-8.42-6.07s-4.94-6.78-6.07-10.19c-5.24-15.71-1.38-32.94,4.96-50.84,4.55-12.86,18.2-30.6,27.79-46.34,1.91-3.13,8.98-11.8,14.65-18.8,8.66-10.68,20.07-18.46,18.07-20.13-4-1.9-30,24.63-38.17,35.69-10.96,14.84-23.17,33.02-28.29,47.47-6.48,18.33-10.95,37.06-4.99,54.94,2.91,8.74,10.07,17.85,18.74,20.33,4.79,1.37,10.78,2.53,16.57,2.28,5.8-.25,11.76-2.02,15.19-7.08,11.47-16.93,16.61-36.34,22.27-55.55,1.59,11.06,4.58,21.61,9.3,32.1,0,0,0,0,0,0,0,.01,0,.02.01.03,0,0,0,.01,0,.02l.03.07.04.06s0,0,0,0c0,0,.06.07.1.13,3.44,7.58,11.77,14.11,20.85,15.47,7.22,1.08,12.73-1.72,16.44-5.93,3.67-4.17,6.01-9.46,8.64-14.18,5.28-9.5,9.26-24.64,12.36-39.64.5.54.82.84,1.42,1.52,2.52,2.83,5.39,6.51,6.41,8.63,3.65,7.58,2.31,18.16,6.14,28.25,1.35,3.54,2.54,7.89,4.38,12.02,1.84,4.13,4.43,8.21,8.79,10.62,7.02,3.88,16.4,3.17,23-1.12h0s.36-.24.36-.24l.29-.32c10.47-11.87,15.72-29.1,15.88-46.51,6.46,11,10.66,19.71,15.39,25.3,7.7,9.12,20.06,10.59,29.39,8.08h-.05s.17-.03.17-.03l.16-.06h0c9.53-3.54,15.77-9.68,19.28-17.13,2.09-4.45,3.01-9.4,3.52-14.47,2.15,3.86,4.4,7.64,7.3,10.9,5.74,6.7,14.17,11.19,22.87,9.23,9.33-2.1,14.3-9.43,16.97-16.98.94,1.57,1.83,3.18,2.87,4.64,2.32,3.28,4.78,6.2,7.79,7.88,6.52,3.64,14.09,3.28,20.61,1.47,6.52-1.81,12.13-5.02,15.46-8.25h.01s.12-.13.12-.13l.1-.12h0c12.11-14.72,12.31-33.88,8.66-52.51-.07-.37-.06-.23-.09-.34s-.08-.26-.13-.44c-.11-.37-.28-.89-.49-1.55-.42-1.31-1.01-3.17-1.73-5.39-1.44-4.45-3.39-10.39-5.46-16.49-2.07-6.1-4.25-12.37-6.17-17.48l-7.28-12.6Zm-284.04,86.61q-503.99-291.96,0,0Zm12.27,39.84h0s0,0,0,.01v.03s0-.02,0-.02h0s0-.02,0-.02Z"/>
      <path id="path21" class="cls-3" d="m810.36,288.34s7.64.85,11.64-1.34c7.12-3.89,12.43-11.24,15.5-18.75,3.7-9.06,3.28-19.5,2.5-29.25-.97-12.2-6.11-32.47-6.11-32.47"/>
      <path id="path1" class="cls-15" d="m401.65,146.19c-1.69-.02-3.34.07-4.96.27-6.48.78-12.33,3.01-19.69,5.49-14.71,4.96-35.95,11.37-80.67,11.48-20.54.05-43.43-3.63-64.86,1.99-18.75,4.92-30.98,6.32-50.52,27.54-31.17,33.85-32.05,82.06-32.2,86.42-.67,19.78,1.9,60.06,36.91,128.1-1.75,2.9-21.58,35.93-36.03,71.11-11.18,27.21-18.87,60.29-22.05,80.52-4.97,31.55-9.16,45.37-18.65,94.94-6.21,32.45-17.13,67.42-13.38,92.55,1.24,8.3,4.18,17.42,10.84,23.81,4.31,4.14,10.35,5.67,15.38,6.63,1.62.31,2.85.43,4.19.59l-7.4,25.65h.04s-.19.18-.19.18l2.68,2.98c57.06,63.53,235.25,219.81,570.78,171.95h.06s.14-.03.14-.03l.08-.02c45.93-7.12,89.08-17.72,126.91-39.38.52-.28,1.03-.56,1.54-.85.27-.16.54-.32.81-.48,22.22-12.42,42.52-28.95,60.3-51.74l.13-.16.91-1.45c2.78-1.43,15.11-7.83,30.04-16.45,8.35-4.82,17.01-10.06,24.3-15.02s13.1-9.34,16.3-13.73c2.73-3.74,4.05-7.36,3.99-10.79-.05-3.43-1.35-6.25-2.65-8.82-2.38-4.71-5-9.1-5.31-16.79,9.27-5.77,16.57-9.84,22.26-15.66,6.14-6.28,10.06-14.6,12.65-28.19l.03-.15.02-.16c.49-4.47-.67-9.37-1.78-13.57-.8-3.01-1.25-4.2-1.66-5.42,1.72-2.22,7.16-9.34,10.48-15.93,2.19-4.34,3.92-10.37,5.26-15.53,1.04-4.01,1.43-5.95,1.72-7.29,2.39-1.11,4.81-2.03,7.33-3.07,3.06-1.26,6.34-2.96,8.85-6.15,20.68-26.28,21.98-58.27,21.31-90.8-.59-28.68-1.51-59.04-10.69-87.12-5.74-17.56-14.51-32.64-20.76-46.85,1.59-.09,1.76-.03,3.79-.23,5.23-.51,10.9-1,15.2-3.68,5.86-3.65,9.33-9.07,10.68-15.44s.98-13.67.18-22.67c-1.6-18-5.17-42.91-3.22-78.95h0v-.02c1.44-28.92-6.97-51.43-21.65-69.78-14.68-18.35-35.43-32.65-58.82-46.36l-.15-.09-.16-.08c-17.85-8.42-42.59-12.13-59.2-18.96-17.86-7.34-37.55-14.71-58.54-11.04-80-59.42-192.22-50.87-284.69-50.99h-.29c-35.65,2.51-65.79,5.89-99.36,21.55-2.93-2.26-19.54-15.05-29.04-20.1l-.23-.12-.24-.09c-6.5-2.45-12-3.53-17.07-3.6h0Zm-.05,8c3.96.03,8.3.88,14.03,3.01,8.48,4.56,29.62,20.68,29.62,20.68l1.96,1.51,2.23-1.07c33.18-15.97,62.38-19.21,98.61-21.76,93.45.11,204.29-7.75,281.11,50.35l1.45,1.09,1.78-.36c18.89-3.87,37.49,2.88,55.68,10.36,18.11,7.45,42.68,11.23,58.68,18.73,22.99,13.49,42.83,27.34,56.44,44.35,13.64,17.05,21.25,37.17,19.9,64.37-1.98,36.76,1.68,62.49,3.24,80.07.78,8.79.98,15.52-.04,20.3s-2.83,7.64-7.07,10.29c-1.12.7-6.89,2.04-11.75,2.51-4.86.48-9.08.55-9.08.55l-5.79.1,2.13,5.39c6.59,16.69,16.83,33.04,22.87,51.52,8.69,26.6,9.7,56.17,10.29,84.79.66,32.2-.77,61.76-19.6,85.68-1.3,1.65-3.01,2.63-5.6,3.7-2.6,1.07-5.96,2.12-9.59,4.05l-1.67.88-.38,1.85s-.83,4.02-2.11,8.96-3.11,10.86-4.66,13.94c-3.1,6.16-10.9,16.29-10.9,16.29l-1.36,1.74.75,2.08s1.09,3.05,2.11,6.88c1,3.79,1.76,8.47,1.56,10.55-2.43,12.59-5.57,18.85-10.46,23.86-4.92,5.04-12.21,9.03-22.81,15.73l-1.82,1.15-.04,2.16c-.22,11.1,3.99,18.03,6.31,22.63,1.16,2.3,1.76,3.9,1.79,5.32.02,1.42-.39,3.1-2.46,5.94-1.75,2.4-7.32,7.05-14.33,11.82-7.01,4.77-15.55,9.95-23.79,14.7-16.48,9.51-31.76,17.35-31.76,17.35l.03.06c-17.66,22.62-37.72,39.56-59.76,52.53-.3.17-.58.35-.88.52-.38.22-.78.42-1.16.64-36.6,19.87-78.85,28.48-124.96,35.61-331.33,47.25-505.53-106.62-561.07-168.44l-.84-.93,5.65-19.59c10.41-3.89,17.5-10.99,22.34-19.6,1.52,3.09,3.08,6.3,5.51,10.32,3.19,5.29,6.97,10.72,11.38,15.17,0,0,0,0,0,0,3.98,4.12,9.31,8.97,16.68,8.88,10.29-.12,18.03-5.81,23.3-12.15,2.75-3.31,4.93-7.05,6.7-11.03,1.92,4.87,4.18,9.24,7.14,12.91,5.38,6.66,12.45,11.06,20.34,10.81,15.43-.5,26.92-7.37,34.08-17.72,3.47-5.02,5.97-10.76,7.79-16.95,1.93,9.81,4.08,19.63,7.51,28.07,3.13,7.72,7.43,14.46,14.05,18.54s15.28,5.03,25.69,2.17c8.01-2.2,13.96-7.35,17.9-13.84s6.03-14.27,7.07-22.42c2.09-16.31-.08-34.26-2.41-46.77-6.99-37.4-27.19-67.08-15.39-138.37,1.47-8.89,5.68-20.38,9.87-30.52s8.25-18.64,9.75-23.44c2.63-8.41,14.46-49.87,15.18-68.79.42-11.2-1.62-20.41-2.01-29.1s.59-16.9,6.94-27.49c20.24-33.74,29.9-57.17,36.52-96.9.62-3.72,3.63-7.95,7.92-11.77s9.66-7.18,14.14-9.59l-3.8-7.06c-4.84,2.61-10.66,6.2-15.67,10.67s-9.4,9.84-10.5,16.44c-6.5,39.01-15.5,60.78-35.48,94.1-7.15,11.91-8.51,22.35-8.08,31.97.43,9.62,2.39,18.42,2.01,28.44-.6,15.77-12.45,59.12-14.82,66.71-1,3.2-5.24,12.42-9.51,22.77s-8.68,22.1-10.37,32.28c-12.1,73.12,8.81,105.81,15.42,141.15,2.24,12,4.24,29.42,2.34,44.28-.95,7.43-2.88,14.17-5.98,19.28s-7.17,8.62-13.16,10.26c-8.96,2.46-14.83,1.52-19.37-1.27-4.54-2.79-8.04-7.88-10.82-14.72-5.12-12.62-7.45-30.49-11.18-46.5,2.31-28.22-3.09-60.47-5.88-80.99v-.04s0-.02-.01-.04l-.03-.22-.07-.29c-.1-.43-.4-3.45-.48-7.36s-.08-8.99.01-14.8c.17-11.63.63-26.19,1.17-40.41,1.08-28.46-2.92-57.91-2.92-57.91l-7.21,56.32c-.99,14.25-1.83,29.09-2.09,41.61-.27,12.53-.16,22.35,1.45,28.28l-.1-.51c2.86,20.97,7.53,49.7,5.27,76.01-1.13,13.12-4.17,24.67-9.62,32.55-5.47,7.92-12.89,12.61-25.45,13.02-3.68.12-7.5-1.81-11.5-6.77-3.99-4.94-7.71-12.72-10.26-22.46h0s-.12-.47-.12-.47c3.34-13.87,5.66-28.22,4.88-42.7-2.51-46.18-.16-81.33,2.66-105.72l4.3-44.25c-14.44,48.33-19.77,101-17.85,150.48.44,11.3-1.8,29.25-5.72,44.45-1.93,7.47-4.73,14.05-8.58,18.68-3.94,4.73-8.45,7.98-15.22,8.2-1.61.05-5.07-2.05-8.62-5.64-3.21-3.24-6.17-8.58-10.08-13.54-4.22-5.36-7.75-14.49-8.45-16.76l-.04-.15-.43-1.1c.32-1.06.66-2.1.94-3.17,4.12-15.84,4.67-33.31,6.63-46.91h0s0-.02,0-.02h0s1.43-8.68,2.87-17.48c38.45-235.37-42.59,260.05,4.6-28.54,1.03-6.31,2.41-14.69,3.79-23.06,2.74-16.67,5.48-33.24,5.49-33.3,6.86-27.43,15.83-67.43,11.56-73.67-8.51-2.35-19.71,58.94-22.27,71.59l-.03.13v.07s-2.76,16.68-5.52,33.41c-1.38,8.37-2.75,16.76-3.79,23.08-1.55,9.54-3.04,18.98-4.6,28.54-1.44,8.8-2.88,17.56-2.88,17.56v.04s.02-.11.02-.11c-2.92,15.46-2.98,31.45-6.11,44.85s-8.71,23.91-23.3,30.47l-2.06.9c-1.46-.14-1.84-.07-4.05-.49-4.38-.84-9.32-2.61-11.34-4.54-4.68-4.49-7.38-11.96-8.46-19.21-3.23-21.64,7-56.81,13.33-89.86,9.46-49.41,13.67-63.32,18.69-95.2,1.28-8.1,3.33-18.47,6.07-29.7,3.89-15.93,9.14-33.61,15.48-49.02,14.75-35.92,36.56-71.93,36.56-71.93l1.17-1.93-1.04-2c-35.52-68.32-37.62-107.14-36.98-126.12.17-4.94,1.44-50.16,30.08-81.26,18.6-20.2,27.37-20.15,46.65-25.21,19.18-5.03,41.4-1.68,62.85-1.73,45.5-.11,68.25-6.86,83.21-11.9,7.48-2.52,12.89-4.5,18.09-5.13,1.3-.16,2.6-.24,3.94-.23h0Zm-122.39,503.66s.01.07.02.11v-.02s-.02-.08-.02-.08Z"/>
      <path id="path24" d="m858.83,340.48l-12.99-1.16c55.21,24.73,71.42,45.5,86.97,76.21,5.85,11.55,10.92,22.71,20.17,32.23s22.54,16.94,43.61,21.37l4.95,1.04,2.08-9.9-4.95-1.04c-19.72-4.15-30.68-10.54-38.44-18.51s-12.44-17.99-18.39-29.75c-16.8-33.19-28.02-45.82-83.01-70.48Z"/>
      <path id="path29" class="cls-4" d="m944.33,799.8c-68.26,15.5-272.05,56.45-355.82-15.33-14.24-15.31-18.18-54.87-18.18-54.87-2.56-8.18,17.47-62.42,131.52-12.94,5.88,4,28.35,20.09,52.38,21.62,23.83,1.51,49.14-11.53,72.02-10.31,47.03,2.51,73.95,5.94,143.87-43.64,10.94-7.76,21.73.71,23.38,12.7"/>
      <path id="path30" class="cls-1" d="m976.85,740.53s-43.63,24.66-67.74,30.02c-36.83,8.19-79.01,3.41-116.42,8.3-69.78,22-118.65-13.43-184.87-36.41"/>
      <path id="path31" class="cls-1" d="m876.78,881.78l-148.57,32.72c-64.17,14.13-122.93-10.56-172.82-53.5"/>
      <path id="path32" class="cls-1" d="m975.02,679.62c9.03-54.63-5.34-107.55-30.5-156.17"/>
      <path id="path34" class="cls-4" d="m980.31,657.26c28.15-13.72,34.32-26.54,28.64-57.43-10.45-49.03-24.16-97.35-39.53-145.05"/>
      <path id="path35" class="cls-4" d="m828.45,281.41c24.92,18.77,44,42.87,54.43,71.03"/>
      <path id="path36" class="cls-4" d="m858.66,308.08c-1.48-24.45,3.87-47.76,8.44-71.58"/>
      <path id="path37" class="cls-4" d="m843.69,243.58c9.27,6.88,12.14,15.55,16.33,25.85"/>
      <path id="path38" class="cls-2" d="m563.91,650.46c-35.27,42.43-37.46,72.62-37.01,124.65"/>
      <path id="path39" class="cls-7" d="m878.32,699.73l-49.27-5.39c-36.9-5.25-75.29,44.43-110.85-20.01-23.56-55.24,5.04-81.66,59.27-93.91,0,0,29.2-39.17,50.75-40.19,19.88-.94,50.09,32.49,50.09,32.49,39.08-1.87,50.41.01,60.81,35.41,25.39,86.35-26.58,95.35-60.81,91.6Z"/>
      <path id="path73" class="cls-11" d="m762.86,664.88l20.14,2.45,21.23-2.99,11.7-9.25s4.35-14.7,4.35-15.79-.54-16.06-.54-16.06l-7.08-3.54-14.42.27-15.79,9.25-9.8,11.43-9.8,24.22Z"/>
      <path id="path40" class="cls-2" d="m753.61,678.95c16.26-23.88,20.84-67.77,60.04-58.5,12.24,2.89,7.58,28.31-.77,37.72-11.13,12.55-49.84,7.02-49.84,7.02"/>
      <path id="path80" class="cls-12" d="m742.07,548.08s1.15-15.4-7.7-9.62c-8.85,5.77-28.1,8.08-34.26,21.55-6.16,13.47-12.7,28.87-16.94,35.79s-21.17,29.64-23.09,33.87c-1.92,4.23-16.94,18.47-8.85,18.09,8.08-.38,17.7-10.01,19.24-12.32,1.54-2.31,26.56-43.49,26.56-43.49l33.87-36.56,11.16-7.31Z"/>
    </g>
    <path id="path41" class="cls-2" d="m670.6,636.85c20.25-38.82,38.63-59.75,69.13-88.72"/>
    <g id="g71">
      <path id="path71" class="cls-8" d="m739.18,440.9c16.33-.54,81.1-19.05,81.1-19.05l46.27,1.63,36.47,5.44,32.11,15.79,5.99,17.42-3.81,21.23-19.05,17.96-73.48,11.97-65.32,3.81-39.19-7.08-6.53-6.53,8.16-25.04-3.81-26.13,1.09-11.43Z"/>
      <ellipse id="path69" cx="776.47" cy="473.01" rx="59.06" ry="51.17"/>
      <path id="path70" class="cls-8" d="m726.66,516.56l14.15-21.23,1.09-43-13.06-12.52-84.37-14.7-39.19-.54-35.38,5.44-61.51,28.85-39.74,26.13,33.75,10.34,58.24,18.51,49.53,15.24,57.7,5.99,38.1-5.99,20.68-12.52Z"/>
      <ellipse id="path67" class="cls-6" cx="569.9" cy="478.45" rx="69.13" ry="48.44"/>
      <path id="path68" class="cls-14" d="m736.68,441.08l-46.19-13.09-70.82-8.47-61.58,16.94-88.52,46.96,22.32,10.01,64.66,23.86,52.34,13.86,73.51.77s29.25-8.47,29.25-5.39,21.94-16.94,21.94-16.94l38.49,10.01,43.88-.77,112.39-20.4,15.14-29.66-10.45-29.19,19.94,34.6,1.92,30.41s-38.87,12.7-66.59,29.64,42.34,11.93-91.6-3.46c-59.62-6.85-92.6,5.63-118.66,14.3-32.48,10.8-52.7,18.23-83.03,4.56-54.65-24.63-116.62-23.09-126.63-40.8-10.01-17.7-28.1-25.4-10.39-46.19s80.06-88.52,121.63-98.53c41.57-10.01,290.21.38,290.21.38l29.46,24.99,26.65,19.08c-39.59-34.42,32.77,50.42,19.71,42.53l-18.12-13-73.86-17.19-117.02,20.18Z"/>
      <path id="path65" class="cls-2" d="m453.42,486.62c57.83,3.59,116.33,40.14,173.09,44.09,37.73,1.42,76.24,10.04,101.79-16.6,15.75-16.42,11.29-46.42,11.29-68.99-41.41-20.46-71.04-17.06-115.8-21.64-64.36,5.14-104.26,28.3-158.12,62.32"/>
      <path id="path66" class="cls-2" d="m734.37,508.05c54.24,16.05,90.16,8.61,145.49,3.08,30.25-6.97,43.42-4.92,59.62-30.24,19.08-48.58-63.62-58.44-94.98-59.57-36.01-1.3-106.28,19.76-106.28,19.76"/>
      <path id="path43" class="cls-2" d="m438.39,414.91c62.96,7.72,100.73-21.54,156.65-46.96,0,0,40.58-14.16,61.58-13.47,39.12.83,59.07,23.77,81.6,87.75"/>
      <path id="path45" class="cls-2" d="m528.8,551.94c73.81,20.66,135.14,13.92,199.76-20.14"/>
      <path id="path44" class="cls-2" d="m597.11,597.39l78.38-29.12"/>
      <path id="path33" class="cls-1" d="m924.38,526.63s23.35-1.76,27.9-10.61c4.78-9.31-10.98-32.09-10.98-32.09"/>
      <path id="path42" class="cls-2" d="m439.16,502.28s-25.61-22.5-21.94-28.87c6.93-12.03,26.86-11.27,41.57-17.32,32.32-13.3,94.68-45.03,94.68-45.03,46.7-20.36,87.88-10.67,136.64-4.23"/>
      <path id="path63" class="cls-2" d="m734.37,424.92c57.72-18.8,110.08-27.74,170.89-20.01"/>
    </g>
    <circle id="path81" class="cls-8" cx="761.61" cy="457.33" r="8.82"/>
    <circle id="path81-1" class="cls-8" cx="782.02" cy="473.66" r="4.66"/>
    <circle id="path81-7" class="cls-8" cx="551.68" cy="459.18" r="11.39"/>
    <circle id="path81-1-7" class="cls-8" cx="578.05" cy="480.27" r="6.02"/>
  </g>
</svg>